HIERARCHY
ROOT Hips
{
	OFFSET	0.00	0.00	0.00
	CHANNELS 6 Xposition Yposition Zposition Zrotation Xrotation Yrotation
	JOINT LeftUpLeg
	{
		OFFSET	 0.126116	-0.065224	 0.014019
		CHANNELS 3 Zrotation Xrotation Yrotation
		JOINT LeftLeg
		{
			OFFSET	 0.000000	 0.569914	 0.000000
			CHANNELS 3 Zrotation Xrotation Yrotation
			JOINT LeftFoot
			{
				OFFSET	 0.000000	 0.544423	 0.000000
				CHANNELS 3 Zrotation Xrotation Yrotation
				JOINT LeftToeBase
				{
					OFFSET	 0.000000	 0.207117	 0.000000
					CHANNELS 3 Zrotation Xrotation Yrotation
					End Site
					{
						OFFSET	 0.000000	 0.207117	 0.000000
					}
				}
			}
		}
	}
	JOINT RightUpLeg
	{
		OFFSET	-0.124023	-0.065224	 0.008373
		CHANNELS 3 Zrotation Xrotation Yrotation
		JOINT RightLeg
		{
			OFFSET	 0.000000	 0.570047	 0.000000
			CHANNELS 3 Zrotation Xrotation Yrotation
			JOINT RightFoot
			{
				OFFSET	 0.000000	 0.544354	 0.000000
				CHANNELS 3 Zrotation Xrotation Yrotation
				JOINT RightToeBase
				{
					OFFSET	 0.000000	 0.207540	 0.000000
					CHANNELS 3 Zrotation Xrotation Yrotation
					End Site
					{
						OFFSET	 0.000000	 0.207540	 0.000000
					}
				}
			}
		}
	}
	JOINT Spine
	{
		OFFSET	 0.000184	 0.117403	 0.007763
		CHANNELS 3 Zrotation Xrotation Yrotation
		JOINT Spine1
		{
			OFFSET	 0.000000	 0.137269	 0.000000
			CHANNELS 3 Zrotation Xrotation Yrotation
			JOINT Spine2
			{
				OFFSET	 0.000000	 0.156879	 0.000000
				CHANNELS 3 Zrotation Xrotation Yrotation
				JOINT LeftShoulder
				{
					OFFSET	 0.080501	 0.160143	 0.002496
					CHANNELS 3 Zrotation Xrotation Yrotation
					JOINT LeftArm
					{
						OFFSET	 0.000000	 0.164363	 0.000000
						CHANNELS 3 Zrotation Xrotation Yrotation
						JOINT LeftForeArm
						{
							OFFSET	 0.000000	 0.364576	 0.000000
							CHANNELS 3 Zrotation Xrotation Yrotation
							JOINT LeftHand
							{
								OFFSET	 0.000000	 0.360812	 0.000000
								CHANNELS 3 Zrotation Xrotation Yrotation
								JOINT LeftHandIndex1
								{
									OFFSET	 0.000000	 0.086006	 0.000000
									CHANNELS 3 Zrotation Xrotation Yrotation
									JOINT LeftHandIndex2
									{
										OFFSET	 0.000000	 0.047237	 0.000000
										CHANNELS 3 Zrotation Xrotation Yrotation
										JOINT LeftHandIndex3
										{
											OFFSET	-0.004284	 0.038165	 0.000551
											CHANNELS 3 Zrotation Xrotation Yrotation
											End Site
											{
												OFFSET	-0.004284	 0.038165	 0.000551
											}
										}
									}
								}
							}
						}
					}
				}
				JOINT Neck
				{
					OFFSET	 0.000000	 0.176489	 0.000000
					CHANNELS 3 Zrotation Xrotation Yrotation
					JOINT Head
					{
						OFFSET	 0.000000	 0.077941	 0.001747
						CHANNELS 3 Zrotation Xrotation Yrotation
						End Site
						{
							OFFSET	 0.000000	 0.077941	 0.001747
						}
					}
				}
				JOINT RightShoulder
				{
					OFFSET	-0.080363	 0.159706	-0.000306
					CHANNELS 3 Zrotation Xrotation Yrotation
					JOINT RightArm
					{
						OFFSET	 0.000000	 0.164196	 0.000000
						CHANNELS 3 Zrotation Xrotation Yrotation
						JOINT RightForeArm
						{
							OFFSET	 0.000000	 0.365611	 0.000000
							CHANNELS 3 Zrotation Xrotation Yrotation
							JOINT RightHand
							{
								OFFSET	 0.000000	 0.360648	 0.000000
								CHANNELS 3 Zrotation Xrotation Yrotation
								JOINT RightHandIndex1
								{
									OFFSET	 0.000000	 0.069977	 0.000000
									CHANNELS 3 Zrotation Xrotation Yrotation
									JOINT RightHandIndex2
									{
										OFFSET	 0.000000	 0.052305	 0.000000
										CHANNELS 3 Zrotation Xrotation Yrotation
										JOINT RightHandIndex3
										{
											OFFSET	 0.009002	 0.042196	 0.000782
											CHANNELS 3 Zrotation Xrotation Yrotation
											End Site
											{
												OFFSET	 0.009002	 0.042196	 0.000782
											}
										}
									}
								}
							}
						}
					}
				}
			}
		}
	}
}
MOTION
Frames:    7
Frame Time: 0.03333334
-0.057240	 1.240546	-0.038177	 1.691781	-2.633551	-178.517700	-163.140700	 17.810790	-29.869230	 6.429777	-22.813350	 9.334059	 9.106750	 63.940130	-12.056720	 1.149427	 26.518680	-2.654675	 167.386600	 7.562181	 39.515250	-2.362162	-28.546410	 11.109510	 22.963050	 77.902290	-20.761890	-1.355064	 29.234380	 2.738995	-2.426426	 6.266942	 25.447340	-8.478451	 3.609548	 8.338501	 9.027915	-2.452458	-15.870500	-105.964400	 3.565507	 92.731270	 32.800770	 52.316260	-2.317407	 6.241240	-0.254689	-1.612011	-6.422745	 19.293290	 41.576840	 2.612851	 43.282490	-1.257991	-6.878653	 49.292190	 6.145226	 6.200708	 25.147870	 0.055915	 4.050864	-8.339346	-1.896682	 0.775107	-6.973178	-5.957316	 111.705800	 20.035220	-97.714350	 13.611040	 30.541930	-22.704790	-33.205360	-1.182860	 1.236002	 25.969820	 18.916980	 24.100110	-2.969719	 6.299362	 0.466571	 12.753770	 25.615020	-5.827909	-8.524143	 16.470380	-0.738917
-0.017830	 1.241001	-0.015317	 0.515905	-1.372144	 176.610900	-161.600600	 12.807260	-34.806040	 4.483528	-16.363770	 3.545240	-3.448896	 60.488800	 0.089946	 1.150828	 26.537780	-2.655232	 169.033800	 8.306903	 34.543730	-2.266588	-27.564880	 10.129450	 21.810580	 76.811830	-17.822720	-1.339994	 29.039230	 2.732414	 2.172463	 5.934633	-2.151133	-7.669612	 3.528918	 7.234598	 8.980520	-2.625163	-14.589340	-107.877700	 4.424700	 92.739430	 53.059910	 27.941810	-8.266161	 15.790520	-0.232437	 13.178730	 2.994790	 30.533700	 19.853000	 0.847886	 16.433990	-0.353396	-5.863895	 21.489930	 2.375765	 5.272232	 2.957857	-0.194814	 3.880569	-7.889379	-1.127453	-0.096001	-6.785246	-2.596354	 115.872800	 16.595770	-97.323650	 4.318610	 41.035310	-13.425310	-16.549130	-0.204402	-13.199270	 2.599046	 22.366710	 19.175660	-2.396255	 4.298105	 0.878488	 12.485280	 22.147610	-4.979067	-8.498318	 12.840370	-0.508978
-0.001405	 1.242250	 0.000447	 0.384356	-0.388231	 173.590100	-161.655800	 9.160766	-37.339610	 3.042022	-11.273210	 0.419909	-8.337343	 57.136570	 5.093584	 1.153216	 26.570220	-2.656180	 169.811600	 9.029848	 32.009160	-2.310169	-28.014530	 8.880355	 14.129040	 76.782030	-11.455800	-1.329562	 28.903360	 2.727888	 5.011351	 4.517110	-22.466630	-6.210195	 3.039425	 5.800159	 8.619787	-2.435379	-14.015830	-109.694300	 5.067487	 92.743970	 46.186540	 23.067360	-5.364551	 27.845450	-0.225275	 27.276960	 20.929640	 29.140010	 17.475760	 0.632511	 11.317770	-0.328550	-5.906753	 16.287850	 1.809213	 5.084447	-1.328598	-0.283845	 3.607606	-7.787147	-0.553844	-0.588469	-6.528835	-1.015649	 118.448500	 14.121480	-96.921750	 3.126448	 38.224950	-9.993340	-28.733870	-0.200094	-27.294490	-0.339690	 18.031640	 6.133724	-2.386685	 4.342410	 0.905867	 12.490620	 22.225500	-4.997712	-8.498846	 12.899350	-0.512705
 0.002679	 1.240359	 0.009568	 0.448229	 0.210476	 171.906100	-161.295500	 8.591157	-38.796790	 3.135497	-11.610020	-0.747843	-10.757240	 56.917530	 7.353933	 1.155643	 26.603100	-2.657140	 169.976900	 9.615690	 30.498540	-2.407131	-29.002050	 8.075325	 10.019010	 76.852230	-7.812304	-1.318604	 28.760370	 2.723160	 6.029924	 3.745992	-28.531230	-5.863300	 2.883266	 5.209455	 8.612932	-2.338085	-13.598790	-111.131700	 5.601134	 92.780720	 41.500510	 23.617140	-4.994147	 37.040610	-0.219716	 37.879640	 28.897850	 24.503590	 25.577690	 0.535820	 8.720805	-0.331786	-5.948159	 13.657640	 1.526562	 4.986538	-3.500868	-0.334430	 3.404623	-7.617131	-0.068976	-0.937951	-6.310283	-0.102724	 120.451700	 12.341690	-96.606960	-0.979017	 35.961790	-5.674563	-37.970360	-0.193333	-37.894010	 0.616363	 12.789330	-5.328634	-2.385867	 4.476676	 0.911416	 12.504730	 22.429080	-5.046496	-8.499901	 13.017090	-0.520138
-0.000924	 1.235558	 0.011668	 0.772147	 0.390874	 172.091100	-160.099500	 10.657000	-38.666570	 4.450580	-16.250090	 1.360979	-8.947867	 59.389120	 4.690237	 1.158948	 26.647750	-2.658441	 169.789800	 9.913487	 30.460990	-2.556291	-30.484700	 7.840106	 10.569790	 77.391140	-7.932591	-1.302268	 28.546700	 2.716163	 5.417829	 4.859243	-17.751810	-5.802025	 2.492247	 5.073766	 8.560483	-1.861253	-13.296870	-112.327500	 6.122746	 92.872710	 42.247070	 26.027940	-6.378139	 44.279580	-0.213062	 46.174480	 23.461450	 23.183100	 45.024940	 0.553024	 8.679486	-0.345563	-5.948950	 13.614410	 1.521920	 4.986252	-3.507105	-0.334581	 3.276471	-7.218554	 0.426302	-1.144598	-6.081866	-0.078874	 122.148600	 11.224970	-96.490770	-5.155354	 35.438350	-2.677082	-45.187290	-0.184035	-46.184300	 4.371777	 2.751666	-17.712960	-2.359588	 4.688480	 0.904241	 12.523460	 22.694820	-5.110355	-8.499924	 13.019700	-0.520300
-0.004012	 1.233352	 0.011526	 1.010643	 0.379276	 172.330900	-159.517600	 11.711760	-38.468730	 5.095937	-18.429470	 2.936092	-6.950428	 60.591750	 2.205381	 1.161910	 26.687710	-2.659607	 169.760600	 9.974384	 30.524900	-2.614959	-31.005790	 7.746910	 11.031860	 77.530980	-8.102065	-1.289216	 28.375490	 2.710615	 3.382895	 6.464448	 3.611280	-5.927333	 2.396910	 5.272211	 8.568011	-1.545746	-13.044280	-113.196400	 6.486925	 92.936960	 43.154090	 27.362500	-7.607216	 46.585190	-0.211130	 48.787940	 17.222820	 23.736040	 61.016400	 0.561907	 8.651769	-0.355699	-5.949605	 13.578680	 1.518092	 4.985978	-3.513035	-0.334725	 3.185011	-6.842824	 0.857148	-1.217405	-5.879486	-0.060888	 123.446600	 10.380100	-96.383740	-7.328215	 34.843740	-1.007347	-47.463820	-0.180635	-48.795600	 6.616908	-3.865646	-26.391040	-2.313191	 4.844852	 0.896728	 12.531580	 22.808560	-5.137760	-8.499902	 13.016060	-0.520052
-0.001929	 1.232135	 0.011826	 1.110758	 0.547426	 172.161400	-159.100400	 11.669550	-38.766960	 5.256684	-18.989980	 1.715106	-9.893085	 60.766060	 5.233457	 1.159166	 26.650700	-2.658527	 169.864800	 9.900542	 30.452960	-2.653288	-31.425120	 7.779879	 11.357280	 77.985670	-8.442817	-1.301192	 28.532590	 2.715704	 3.461654	 6.705249	 4.753110	-7.896769	 2.694867	 5.667632	 9.503389	-2.051112	-13.246780	-112.406500	 6.157110	 92.879170	 44.087330	 29.212820	-8.456514	 46.619060	-0.212205	 48.792550	 21.035970	 20.054290	 60.442190	 0.554160	 8.676758	-0.346472	-5.949002	 13.611550	 1.521614	 4.986233	-3.507516	-0.334591	 3.267893	-7.192283	 0.459012	-1.158290	-6.066725	-0.077352	 122.260500	 11.151370	-96.481940	-8.314651	 37.708800	-0.962998	-47.430000	-0.179603	-48.797910	 7.076523	 0.009658	-27.026390	-2.357853	 4.702462	 0.903764	 12.524710	 22.712360	-5.114578	-8.499925	 13.019880	-0.520311
